<svg width="65" height="17" viewBox="0 0 65 17" fill="none" xmlns="http://www.w3.org/2000/svg">
<g clip-path="url(#clip0_474_9753)">
<mask id="mask0_474_9753" style="mask-type:luminance" maskUnits="userSpaceOnUse" x="0" y="0" width="12" height="17">
<path d="M12 0H0V16.2151H12V0Z" fill="white"/>
</mask>
<g mask="url(#mask0_474_9753)">
<path opacity="0.9" d="M0.690612 0.837555H3.28819V16.2151C1.46932 16.1983 6.25e-06 14.7187 0 12.8958V1.52817C6.25e-06 1.14675 0.3092 0.837561 0.690612 0.837555Z" fill="url(#paint0_linear_474_9753)" stroke="#0AD6F8" stroke-width="0.0625"/>
<path opacity="0.9" d="M8.71179 0C10.5307 0.016775 12 1.49649 12 3.31932V15.0788C12 15.4602 11.6908 15.7694 11.3094 15.7694H8.71179V0Z" fill="url(#paint1_linear_474_9753)" stroke="#0AD6F8" stroke-width="0.0625"/>
<g filter="url(#filter0_d_474_9753)">
<path d="M3.31941 0.806305H0.80639C0.66839 0.806305 0.538182 0.839674 0.423401 0.898786C1.48893 1.33302 2.42228 3.246 3.31941 5.56413C5.01891 9.9555 6.58848 15.8007 8.68054 15.8007H11.1935C11.3315 15.8007 11.4617 15.7673 11.5765 15.7082C10.511 15.2739 9.57767 13.3609 8.68054 11.0428C6.98104 6.65144 5.41148 0.806305 3.31941 0.806305Z" fill="url(#paint2_linear_474_9753)"/>
<path d="M3.31941 0.806305H0.80639C0.66839 0.806305 0.538182 0.839674 0.423401 0.898786C1.48893 1.33302 2.42228 3.246 3.31941 5.56413C5.01891 9.9555 6.58848 15.8007 8.68054 15.8007H11.1935C11.3315 15.8007 11.4617 15.7673 11.5765 15.7082C10.511 15.2739 9.57767 13.3609 8.68054 11.0428C6.98104 6.65144 5.41148 0.806305 3.31941 0.806305Z" fill="white" fill-opacity="0.1"/>
<path d="M0.806335 0.837555H3.31935C3.82704 0.837555 4.30929 1.19246 4.77567 1.8071C5.24123 2.42062 5.68554 3.28575 6.11842 4.29019C6.98467 6.30025 7.80029 8.85519 8.65129 11.0541C9.10004 12.2136 9.55835 13.2732 10.0384 14.0977C10.4984 14.8881 10.9817 15.4681 11.5003 15.7089C11.4057 15.7479 11.3022 15.7694 11.1935 15.7694H8.68048C8.17279 15.7694 7.69054 15.4145 7.2241 14.7998C6.75854 14.1863 6.31429 13.3212 5.88142 12.3168C5.0151 10.3067 4.19954 7.75181 3.34854 5.55288C2.89979 4.39344 2.44143 3.33382 1.96148 2.5093C1.50139 1.71892 1.01816 1.13878 0.499512 0.89798C0.594068 0.859049 0.69766 0.837555 0.806335 0.837555Z" stroke="#0AD6F8" stroke-width="0.0625"/>
</g>
</g>
</g>
<path d="M20.1229 14.805C19.0909 14.805 18.1909 14.619 17.4229 14.247C16.6549 13.875 16.0609 13.353 15.6409 12.681C15.2329 11.997 15.0289 11.199 15.0289 10.287C15.0289 8.811 15.4549 7.665 16.3069 6.849C17.1709 6.033 18.3829 5.625 19.9429 5.625C20.9029 5.625 21.7489 5.775 22.4809 6.075C23.2249 6.375 23.8009 6.795 24.2089 7.335C24.6289 7.863 24.8389 8.469 24.8389 9.153C24.8389 9.729 24.6529 10.173 24.2809 10.485C23.9209 10.797 23.4049 10.953 22.7329 10.953H17.3149C17.3149 11.625 17.5489 12.135 18.0169 12.483C18.4969 12.819 19.1989 12.987 20.1229 12.987C21.0949 12.987 21.9229 12.771 22.6069 12.339C22.9909 12.099 23.2909 11.979 23.5069 11.979C23.7109 11.979 23.9089 12.075 24.1009 12.267C24.3049 12.471 24.4069 12.693 24.4069 12.933C24.4069 13.221 24.2869 13.449 24.0469 13.617C23.5429 14.001 22.9549 14.295 22.2829 14.499C21.6109 14.703 20.8909 14.805 20.1229 14.805ZM22.0129 9.297C22.2169 9.297 22.3609 9.261 22.4449 9.189C22.5289 9.105 22.5709 8.973 22.5709 8.793C22.5709 8.373 22.3309 8.043 21.8509 7.803C21.3829 7.563 20.7469 7.443 19.9429 7.443C19.1389 7.443 18.5029 7.611 18.0349 7.947C17.5789 8.283 17.3509 8.733 17.3509 9.297H22.0129ZM27.4882 14.805C27.1162 14.805 26.8282 14.709 26.6242 14.517C26.4202 14.325 26.3182 14.061 26.3182 13.725V6.705C26.3182 6.357 26.4142 6.093 26.6062 5.913C26.8102 5.721 27.0922 5.625 27.4522 5.625C27.8122 5.625 28.0942 5.721 28.2982 5.913C28.5022 6.105 28.6042 6.369 28.6042 6.705V7.299C28.9762 6.819 29.4082 6.453 29.9002 6.201C30.4042 5.937 30.9442 5.805 31.5202 5.805H31.9162C32.3002 5.805 32.5942 5.889 32.7982 6.057C33.0142 6.213 33.1222 6.441 33.1222 6.741C33.1222 7.041 33.0142 7.275 32.7982 7.443C32.5942 7.599 32.3002 7.677 31.9162 7.677H31.3042C30.5002 7.677 29.8582 7.935 29.3782 8.451C28.9102 8.955 28.6762 9.651 28.6762 10.539V13.725C28.6762 14.061 28.5682 14.325 28.3522 14.517C28.1362 14.709 27.8482 14.805 27.4882 14.805ZM38.3514 14.805C37.3194 14.805 36.4194 14.619 35.6514 14.247C34.8834 13.875 34.2894 13.353 33.8694 12.681C33.4614 11.997 33.2574 11.199 33.2574 10.287C33.2574 8.811 33.6834 7.665 34.5354 6.849C35.3994 6.033 36.6114 5.625 38.1714 5.625C39.1314 5.625 39.9774 5.775 40.7094 6.075C41.4534 6.375 42.0294 6.795 42.4374 7.335C42.8574 7.863 43.0674 8.469 43.0674 9.153C43.0674 9.729 42.8814 10.173 42.5094 10.485C42.1494 10.797 41.6334 10.953 40.9614 10.953H35.5434C35.5434 11.625 35.7774 12.135 36.2454 12.483C36.7254 12.819 37.4274 12.987 38.3514 12.987C39.3234 12.987 40.1514 12.771 40.8354 12.339C41.2194 12.099 41.5194 11.979 41.7354 11.979C41.9394 11.979 42.1374 12.075 42.3294 12.267C42.5334 12.471 42.6354 12.693 42.6354 12.933C42.6354 13.221 42.5154 13.449 42.2754 13.617C41.7714 14.001 41.1834 14.295 40.5114 14.499C39.8394 14.703 39.1194 14.805 38.3514 14.805ZM40.2414 9.297C40.4454 9.297 40.5894 9.261 40.6734 9.189C40.7574 9.105 40.7994 8.973 40.7994 8.793C40.7994 8.373 40.5594 8.043 40.0794 7.803C39.6114 7.563 38.9754 7.443 38.1714 7.443C37.3674 7.443 36.7314 7.611 36.2634 7.947C35.8074 8.283 35.5794 8.733 35.5794 9.297H40.2414ZM48.3808 14.805C47.1448 14.805 46.1788 14.451 45.4828 13.743C44.7988 13.023 44.4568 12.027 44.4568 10.755V6.705C44.4568 6.369 44.5648 6.105 44.7808 5.913C44.9968 5.721 45.2848 5.625 45.6448 5.625C46.0168 5.625 46.3048 5.721 46.5088 5.913C46.7128 6.105 46.8148 6.369 46.8148 6.705V10.755C46.8148 11.439 46.9948 11.973 47.3548 12.357C47.7268 12.741 48.2428 12.933 48.9028 12.933C49.7548 12.933 50.4148 12.663 50.8828 12.123C51.3628 11.583 51.6028 10.839 51.6028 9.891V6.705C51.6028 6.369 51.7108 6.105 51.9268 5.913C52.1428 5.721 52.4308 5.625 52.7908 5.625C53.1628 5.625 53.4508 5.721 53.6548 5.913C53.8588 6.105 53.9608 6.369 53.9608 6.705V13.725C53.9608 14.073 53.8588 14.343 53.6548 14.535C53.4628 14.715 53.1868 14.805 52.8268 14.805C52.4668 14.805 52.1848 14.709 51.9808 14.517C51.7768 14.325 51.6748 14.061 51.6748 13.725V13.203C51.2308 13.755 50.7388 14.163 50.1988 14.427C49.6708 14.679 49.0648 14.805 48.3808 14.805ZM59.995 14.805C58.063 14.805 56.641 14.247 55.729 13.131C55.537 12.879 55.441 12.651 55.441 12.447C55.441 12.159 55.591 11.907 55.891 11.691C56.095 11.559 56.293 11.493 56.485 11.493C56.749 11.493 56.995 11.607 57.223 11.835C57.631 12.243 58.027 12.537 58.411 12.717C58.807 12.885 59.293 12.969 59.869 12.969C60.361 12.969 60.775 12.903 61.111 12.771C61.447 12.639 61.615 12.477 61.615 12.285C61.615 12.045 61.477 11.841 61.201 11.673C60.925 11.505 60.367 11.289 59.527 11.025C58.207 10.617 57.271 10.191 56.719 9.747C56.167 9.291 55.891 8.727 55.891 8.055C55.891 7.299 56.215 6.705 56.863 6.273C57.511 5.841 58.405 5.625 59.545 5.625C60.421 5.625 61.213 5.757 61.921 6.021C62.629 6.285 63.145 6.639 63.469 7.083C63.625 7.287 63.703 7.491 63.703 7.695C63.703 7.983 63.559 8.217 63.271 8.397C63.067 8.529 62.857 8.595 62.641 8.595C62.293 8.595 61.975 8.451 61.687 8.163C61.447 7.935 61.135 7.761 60.751 7.641C60.379 7.521 59.971 7.461 59.527 7.461C58.687 7.461 58.267 7.659 58.267 8.055C58.267 8.211 58.333 8.349 58.465 8.469C58.597 8.589 58.831 8.715 59.167 8.847C59.515 8.979 60.055 9.159 60.787 9.387C61.963 9.747 62.785 10.143 63.253 10.575C63.733 11.007 63.973 11.577 63.973 12.285C63.973 13.041 63.625 13.653 62.929 14.121C62.233 14.577 61.255 14.805 59.995 14.805Z" fill="url(#paint3_linear_474_9753)"/>
<defs>
<filter id="filter0_d_474_9753" x="-2.10493" y="-1.35932" width="15.4878" height="19.3256" filterUnits="userSpaceOnUse" color-interpolation-filters="sRGB">
<feFlood flood-opacity="0" result="BackgroundImageFix"/>
<feColorMatrix in="SourceAlpha" type="matrix" values="0 0 0 0 0 0 0 0 0 0 0 0 0 0 0 0 0 0 127 0" result="hardAlpha"/>
<feOffset dx="-0.360938"/>
<feGaussianBlur stdDeviation="1.08281"/>
<feComposite in2="hardAlpha" operator="out"/>
<feColorMatrix type="matrix" values="0 0 0 0 0.148015 0 0 0 0 0.249207 0 0 0 0 0.350398 0 0 0 0.2 0"/>
<feBlend mode="normal" in2="BackgroundImageFix" result="effect1_dropShadow_474_9753"/>
<feBlend mode="normal" in="SourceGraphic" in2="effect1_dropShadow_474_9753" result="shape"/>
</filter>
<linearGradient id="paint0_linear_474_9753" x1="0.375068" y1="14.4163" x2="7.01319" y2="11.7574" gradientUnits="userSpaceOnUse">
<stop stop-color="#12C5F0"/>
<stop offset="1" stop-color="#2B8ED9"/>
</linearGradient>
<linearGradient id="paint1_linear_474_9753" x1="9.08685" y1="14.3389" x2="15.8209" y2="11.7844" gradientUnits="userSpaceOnUse">
<stop stop-color="#2B8ED9"/>
<stop offset="1" stop-color="#03E5FE"/>
</linearGradient>
<linearGradient id="paint2_linear_474_9753" x1="1.77588" y1="14.4163" x2="11.007" y2="2.10863" gradientUnits="userSpaceOnUse">
<stop stop-color="#2B8ED9"/>
<stop offset="1" stop-color="#03E5FE"/>
</linearGradient>
<linearGradient id="paint3_linear_474_9753" x1="3" y1="19.625" x2="5.49294" y2="-3.35131" gradientUnits="userSpaceOnUse">
<stop stop-color="#03E5FE"/>
<stop offset="1" stop-color="#2B8ED9"/>
</linearGradient>
<clipPath id="clip0_474_9753">
<rect width="12" height="16.25" fill="white"/>
</clipPath>
</defs>
</svg>
