<svg width="193" height="261" viewBox="0 0 193 261" fill="none" xmlns="http://www.w3.org/2000/svg">
<path opacity="0.9" d="M11.5498 13.9055H53.111V259.946C24.0091 259.678 0.5001 236.004 0.5 206.838V24.9553C0.5001 18.8527 5.4472 13.9056 11.5498 13.9055Z" fill="url(#paint0_linear_990_4742)" stroke="#0AD6F8"/>
<path opacity="0.9" d="M139.889 0.504639C168.991 0.773039 192.5 24.4484 192.5 53.6137V241.766C192.5 247.868 187.553 252.815 181.45 252.815H139.889V0.504639Z" fill="url(#paint1_linear_990_4742)" stroke="#0AD6F8"/>
<path d="M53.6109 13.4055H13.4025C11.1945 13.4055 9.11116 13.9394 7.27466 14.8852C24.3231 21.833 39.2567 52.4407 53.6109 89.5307C80.8029 159.793 105.916 253.316 139.389 253.316H179.597C181.805 253.316 183.888 252.782 185.725 251.836C168.676 244.888 153.743 214.28 139.389 177.19C112.197 106.928 87.0839 13.4055 53.6109 13.4055Z" fill="url(#paint2_linear_990_4742)"/>
<path d="M53.6109 13.4055H13.4025C11.1945 13.4055 9.11116 13.9394 7.27466 14.8852C24.3231 21.833 39.2567 52.4407 53.6109 89.5307C80.8029 159.793 105.916 253.316 139.389 253.316H179.597C181.805 253.316 183.888 252.782 185.725 251.836C168.676 244.888 153.743 214.28 139.389 177.19C112.197 106.928 87.0839 13.4055 53.6109 13.4055Z" fill="white" fill-opacity="0.1"/>
<path d="M13.4028 13.9055H53.6111C61.7341 13.9055 69.4501 19.584 76.9121 29.4182C84.3611 39.2345 91.4701 53.0767 98.3961 69.1477C112.256 101.309 125.306 142.188 138.922 177.371C146.102 195.922 153.435 212.876 161.115 226.068C168.476 238.714 176.208 247.995 184.506 251.848C182.993 252.471 181.336 252.816 179.597 252.816H139.389C131.266 252.816 123.55 247.137 116.087 237.302C108.638 227.486 101.53 213.645 94.6041 197.574C80.7431 165.412 67.6941 124.534 54.0781 89.3508C46.8981 70.7998 39.5644 53.8457 31.8852 40.6535C24.5237 28.0074 16.792 18.7251 8.49365 14.8723C10.0065 14.2494 11.664 13.9055 13.4028 13.9055Z" stroke="#0AD6F8"/>
<defs>
<linearGradient id="paint0_linear_990_4742" x1="6.5011" y1="231.166" x2="112.711" y2="188.623" gradientUnits="userSpaceOnUse">
<stop stop-color="#12C5F0"/>
<stop offset="1" stop-color="#2B8ED9"/>
</linearGradient>
<linearGradient id="paint1_linear_990_4742" x1="145.89" y1="229.928" x2="253.634" y2="189.055" gradientUnits="userSpaceOnUse">
<stop stop-color="#2B8ED9"/>
<stop offset="1" stop-color="#03E5FE"/>
</linearGradient>
<linearGradient id="paint2_linear_990_4742" x1="28.9143" y1="231.166" x2="176.613" y2="34.2427" gradientUnits="userSpaceOnUse">
<stop stop-color="#2B8ED9"/>
<stop offset="1" stop-color="#03E5FE"/>
</linearGradient>
</defs>
</svg>
