<svg width="19" height="19" viewBox="0 0 19 19" fill="none" xmlns="http://www.w3.org/2000/svg">
<path d="M15.5234 0.75C16.8911 0.750177 17.9998 1.85887 18 3.22656C18 3.45671 17.9675 3.68594 17.9043 3.90723L14.4795 15.8955C14.1235 17.1411 12.985 17.9999 11.6895 18C10.5903 18 9.58531 17.3786 9.09375 16.3955L7.47363 13.1553C7.1088 12.4252 7.25303 11.543 7.83203 10.9678L9.97168 8.84277L10.5322 8.28223C10.55 8.26446 10.55 8.23554 10.5322 8.21777C10.5145 8.20001 10.4855 8.20001 10.4678 8.21777L9.90527 8.78027L7.78223 10.918C7.20697 11.497 6.3248 11.6412 5.59473 11.2764L2.35449 9.65625C1.37138 9.16469 0.75 8.1597 0.75 7.06055C0.750058 5.76503 1.60885 4.6265 2.85449 4.27051L14.8428 0.845703C15.0641 0.782478 15.2933 0.75 15.5234 0.75Z" stroke="black
" stroke-width="1.5"/>
</svg>
